Coordinates
version=1
nRows=16
nColumns=63
inDegrees=yes

Units are S.I. units (second, meters, Newtons, ...)
If the header above contains a line with 'inDegrees', this indicates whether rotational values are in degrees (yes) or radians (no).

endheader
time	pelvis_tilt	pelvis_list	pelvis_rotation	pelvis_tx	pelvis_ty	pelvis_tz	hip_flexion_r	hip_adduction_r	hip_rotation_r	knee_angle_r	knee_angle_r_beta	ankle_angle_r	subtalar_angle_r	mtp_angle_r	hip_flexion_l	hip_adduction_l	hip_rotation_l	knee_angle_l	knee_angle_l_beta	ankle_angle_l	subtalar_angle_l	mtp_angle_l	L5_S1_Flex_Ext	L5_S1_Lat_Bending	L5_S1_axial_rotation	L4_L5_Flex_Ext	L4_L5_Lat_Bending	L4_L5_axial_rotation	L3_L4_Flex_Ext	L3_L4_Lat_Bending	L3_L4_axial_rotation	L2_L3_Flex_Ext	L2_L3_Lat_Bending	L2_L3_axial_rotation	L1_L2_Flex_Ext	L1_L2_Lat_Bending	L1_L2_axial_rotation	L1_T12_Flex_Ext	L1_T12_Lat_Bending	L1_T12_axial_rotation	Abs_r3	Abs_r2	Abs_r1	Abs_t1	Abs_t2	neck_flexion	neck_bending	neck_rotation	arm_flex_r	arm_add_r	arm_rot_r	elbow_flex_r	pro_sup_r	wrist_flex_r	wrist_dev_r	arm_flex_l	arm_add_l	arm_rot_l	elbow_flex_l	pro_sup_l	wrist_flex_l	wrist_dev_l
2.490196	9.379652	-4.416441	85.797848	0.397049	0.744652	0.736180	13.008450	4.451515	1.137011	14.425211	0.251767	27.243433	-8.723811	0.000000	5.848882	-3.053600	5.915182	2.504157	0.043706	24.932986	-8.373479	0.000000	0.155745	0.473909	0.617859	0.289234	0.630299	0.656475	0.255874	1.152262	0.656475	0.178001	1.152262	0.540626	0.144625	0.966395	0.502010	0.088993	0.734085	0.463394	1.112472	5.360953	3.436344	0.000000	0.000000	27.766138	-13.260316	-8.553106	1.966932	-23.255620	24.984476	29.684626	84.352614	-8.587948	-4.621362	19.831724	-20.715807	96.103614	9.803836	10.001558	-4.112614	-10.580962
2.509804	9.350395	-4.432535	86.257748	0.396337	0.744744	0.735731	13.314555	4.350199	0.609209	15.002481	0.261843	27.613033	-8.764577	0.000000	5.896852	-2.976398	6.254113	2.536888	0.044277	25.108934	-8.249230	0.000000	0.167725	0.479284	0.518272	0.311482	0.637448	0.550664	0.275556	1.165331	0.550664	0.191693	1.165331	0.453488	0.155750	0.977356	0.421096	0.095838	0.742411	0.388704	1.198044	5.421755	2.882473	0.000000	0.000000	27.825007	-13.427107	-7.806672	2.642247	-23.731330	25.098272	29.303098	84.164500	-8.501864	-5.625584	20.205588	-20.682140	95.223419	9.411860	9.472343	-5.221806	-11.770830
2.529412	9.345025	-4.442021	86.751758	0.395510	0.744926	0.735256	13.589079	4.262123	0.112202	15.543791	0.271290	27.929491	-8.856318	0.000000	5.926432	-2.922601	6.480963	2.539470	0.044322	25.315842	-7.887207	0.000000	0.178578	0.489973	0.414530	0.331638	0.651663	0.440438	0.293386	1.191319	0.440438	0.204097	1.191319	0.362714	0.165828	0.999152	0.336805	0.102040	0.758967	0.310897	1.275568	5.542667	2.305490	0.000000	0.000000	27.873243	-13.607116	-6.950696	3.613140	-24.341687	26.091013	28.986608	84.136023	-8.659702	-6.488119	20.648058	-20.489445	95.164396	8.917986	8.684735	-6.468871	-12.993746
2.549020	9.358227	-4.454055	87.261727	0.394599	0.745195	0.734841	13.842582	4.172701	-0.502405	16.039314	0.279939	28.231739	-8.771879	0.000000	5.952128	-2.889220	6.528818	2.515336	0.043901	25.555459	-7.204018	0.000000	0.189331	0.504856	0.313957	0.351607	0.671458	0.333580	0.311053	1.227506	0.333580	0.216387	1.227506	0.274713	0.175813	1.029501	0.255090	0.108184	0.782021	0.235468	1.352375	5.711027	1.746137	0.000000	0.000000	27.908684	-13.805392	-5.990579	4.823343	-25.057449	27.804734	28.792629	84.278231	-9.134127	-7.148728	21.150074	-20.168211	95.221948	8.389834	8.207504	-7.836645	-14.137488
2.568627	9.382697	-4.474834	87.782278	0.393641	0.745532	0.734536	14.077430	4.085287	-1.115952	16.469808	0.287452	28.487770	-8.677051	0.000000	5.985167	-2.870502	6.442475	2.463337	0.042993	25.815806	-6.250895	0.000000	0.200823	0.522606	0.217987	0.372948	0.695065	0.231612	0.329932	1.270663	0.231612	0.229520	1.270663	0.190739	0.186484	1.065697	0.177115	0.114750	0.809516	0.163491	1.434458	5.911819	1.212380	0.000000	0.000000	27.933617	-14.041730	-4.919574	6.236888	-25.856553	30.143099	28.728515	84.580292	-10.018390	-7.675015	21.735220	-19.706760	96.058267	7.755206	7.546056	-9.102352	-15.083732
2.588235	9.420421	-4.515897	88.289674	0.392705	0.745895	0.734373	14.301861	4.008928	-1.717286	16.819955	0.293564	28.699927	-8.555288	0.000000	6.038990	-2.872386	6.229354	2.387881	0.041676	26.092856	-5.071809	0.000000	0.214443	0.542710	0.132631	0.398241	0.721804	0.140921	0.352308	1.319544	0.140921	0.245086	1.319544	0.116052	0.199131	1.106693	0.107763	0.122532	0.840657	0.099473	1.531742	6.139238	0.737655	0.000000	0.000000	27.952143	-14.351486	-3.787502	7.768005	-26.707815	32.795127	28.807324	85.040575	-11.318016	-8.133550	22.420766	-19.131589	97.795314	7.026559	6.642402	-10.206597	-15.736206
2.607843	9.474166	-4.583491	88.767070	0.391844	0.746244	0.734394	14.520647	3.952706	-2.305283	17.083586	0.298165	28.861355	-8.396644	0.000000	6.123598	-2.899253	5.892661	2.299098	0.040127	26.375411	-3.726302	0.000000	0.230800	0.565152	0.061289	0.428618	0.751652	0.065119	0.379181	1.374111	0.065119	0.263781	1.374111	0.053628	0.214321	1.152458	0.049797	0.131879	0.875421	0.045967	1.648580	6.393113	0.340869	0.000000	0.000000	27.966327	-14.758294	-2.624516	9.332598	-27.568081	35.440002	29.044592	85.695140	-12.974788	-8.551162	23.219791	-18.467214	100.507520	6.229522	5.505927	-11.168334	-16.167536
2.627451	9.547256	-4.667737	89.203655	0.391070	0.746579	0.734638	14.721014	3.919473	-2.908042	17.260200	0.301247	28.962872	-8.147408	0.000000	6.235241	-2.954000	5.445978	2.214602	0.038652	26.639546	-2.275832	0.000000	0.247985	0.590417	0.010539	0.460533	0.785254	0.011198	0.407415	1.435539	0.011198	0.283422	1.435539	0.009222	0.230279	1.203978	0.008563	0.141699	0.914556	0.007904	1.771334	6.678913	0.058616	0.000000	0.000000	27.981711	-15.290937	-1.490796	10.764745	-28.359100	37.528162	29.511662	86.833410	-14.756798	-8.816543	24.137381	-17.700127	104.073690	5.430288	4.391805	-12.110753	-16.491703
2.647059	9.634375	-4.764842	89.595903	0.390417	0.746918	0.735119	14.892289	3.908563	-3.516366	17.342010	0.302675	28.958149	-7.832551	0.000000	6.378536	-3.032718	4.850765	2.155813	0.037626	26.880433	-0.700925	0.000000	0.265561	0.616895	-0.020557	0.493174	0.820471	-0.021842	0.436290	1.499919	-0.021842	0.303510	1.499919	-0.017988	0.246600	1.257973	-0.016703	0.151742	0.955571	-0.015418	1.896877	6.978444	-0.114334	0.000000	0.000000	27.999818	-15.925795	-0.457040	12.009132	-29.035719	39.062612	30.196158	88.474305	-16.547119	-8.941752	25.130578	-16.818995	108.076266	4.684746	3.603865	-12.706801	-16.828151
2.666667	9.735405	-4.876197	89.941708	0.389890	0.747262	0.735779	15.024833	3.923041	-4.111474	17.319906	0.302289	28.812594	-7.487861	0.000000	6.550973	-3.131727	4.214773	2.128445	0.037148	27.060280	0.818175	0.000000	0.284032	0.644125	-0.035435	0.527476	0.856686	-0.037650	0.466637	1.566125	-0.037650	0.324621	1.566125	-0.031006	0.263752	1.313499	-0.028791	0.162296	0.997749	-0.026576	2.028814	7.286468	-0.197079	0.000000	0.000000	28.022871	-16.611889	0.455685	13.071677	-29.568633	40.255100	31.099714	89.956678	-18.105132	-8.954517	26.162671	-15.755398	112.742892	3.926439	2.878392	-12.517575	-17.274766
2.686275	9.943810	-4.935977	90.229456	0.389108	0.747809	0.736688	15.051178	4.033535	-4.810499	17.197416	0.300152	28.463794	-6.981295	0.000000	6.685615	-3.323476	3.586125	2.139240	0.037337	27.151287	2.165814	0.000000	0.293437	0.683716	0.007464	0.544941	0.909342	0.007930	0.482087	1.662387	0.007930	0.335369	1.662387	0.006531	0.272485	1.394234	0.006064	0.167670	1.059076	0.005598	2.095988	7.734332	0.041510	0.000000	0.000000	28.049369	-17.643098	0.755095	13.875393	-30.121262	41.057329	32.317907	90.901934	-19.255930	-8.822825	27.903696	-13.462570	122.930647	0.691879	-1.120793	-9.171969	-19.418742
2.705882	10.093464	-5.083277	90.451138	0.388798	0.748183	0.737487	15.085689	4.129849	-5.340480	16.943145	0.295714	28.015757	-6.601112	0.000000	6.900504	-3.475346	3.034412	2.170961	0.037890	27.163299	3.253560	0.000000	0.316322	0.712476	0.031668	0.587442	0.947593	0.033647	0.519686	1.732314	0.033647	0.361525	1.732314	0.027710	0.293737	1.452881	0.025730	0.180747	1.103626	0.023751	2.259458	8.059672	0.176129	0.000000	0.000000	28.083304	-18.436450	1.093267	14.635802	-30.288707	42.210805	33.651418	90.725404	-19.802928	-8.662539	29.042267	-11.524128	130.110782	-1.010923	-2.692022	-5.853100	-20.916965
2.725490	10.177405	-5.287364	90.598704	0.388956	0.748427	0.738136	15.097513	4.207156	-5.644097	16.555821	0.288954	27.495454	-6.387109	0.000000	7.156083	-3.576520	2.606394	2.209325	0.038560	27.106285	4.020110	0.000000	0.346623	0.731177	0.037500	0.643714	0.972465	0.039844	0.569467	1.777783	0.039844	0.396156	1.777783	0.032813	0.321874	1.491015	0.030469	0.198060	1.132593	0.028125	2.475894	8.271217	0.208565	0.000000	0.000000	28.122435	-18.929508	1.630112	15.361439	-30.044956	43.901923	35.122472	89.329236	-19.718420	-8.368160	29.596188	-9.863778	134.536179	-1.317648	-2.520371	-2.603507	-21.710395
2.745098	10.206852	-5.568625	90.690565	0.389552	0.748547	0.738575	15.085070	4.271059	-5.723010	15.976227	0.278838	26.922167	-6.317433	0.000000	7.473146	-3.638870	2.330021	2.244375	0.039172	27.001613	4.470984	0.000000	0.387159	0.743163	0.016773	0.718993	0.988407	0.017821	0.636064	1.806926	0.017821	0.442484	1.806926	0.014676	0.359516	1.515458	0.013628	0.221223	1.151159	0.012580	2.765439	8.406807	0.093285	0.000000	0.000000	28.165556	-18.997750	2.628208	16.042712	-29.368976	46.176256	36.575682	86.821425	-18.902291	-7.995655	29.547740	-8.432289	136.433926	-0.370868	-1.081838	0.435169	-21.858112
2.764706	10.160711	-5.902703	90.713752	0.390631	0.748588	0.738737	15.008146	4.303112	-5.609170	15.161558	0.264619	26.359861	-6.244609	0.000000	7.815694	-3.643563	2.167875	2.257587	0.039402	26.894250	4.688267	0.000000	0.435341	0.744556	-0.022302	0.808471	0.990259	-0.023696	0.715221	1.810312	-0.023696	0.497551	1.810312	-0.019515	0.404257	1.518298	-0.018121	0.248754	1.153317	-0.016727	3.109594	8.422562	-0.124039	0.000000	0.000000	28.211262	-18.712854	3.907797	16.663574	-28.269368	49.206156	37.970062	82.624436	-17.398603	-7.464623	28.932013	-7.227507	135.873860	1.641508	1.497079	3.332401	-21.175269
2.784314	10.061005	-6.274509	90.708870	0.392092	0.748592	0.738602	14.844585	4.304029	-5.243819	14.095417	0.246011	25.763252	-6.300551	0.000000	8.166967	-3.605703	2.272778	2.236166	0.039028	26.736239	4.497970	0.000000	0.487697	0.739506	-0.086894	0.905702	0.983543	-0.092325	0.801237	1.798035	-0.092325	0.557389	1.798035	-0.076032	0.452875	1.508001	-0.070602	0.278670	1.145495	-0.065171	3.483570	8.365443	-0.483279	0.000000	0.000000	28.257392	-18.061002	5.620183	17.136512	-26.848547	52.521729	39.163580	78.244133	-15.318240	-6.855783	27.828586	-6.248023	133.240165	4.492933	4.882285	5.896356	-19.745320
